{
	"asset":{
		"generator":"Khronos glTF Blender I/O v3.5.30",
		"version":"2.0"
	},
	"scene":0,
	"scenes":[
		{
			"extras":{
				"_RNA_UI":{
					"SRID":{
						"description":"Map Coordinate Reference System",
						"default":""
					},
					"crs x":{
						"description":"Scene x origin in CRS space",
						"default":0.0
					},
					"crs y":{
						"description":"Scene y origin in CRS space",
						"default":0.0
					},
					"longitude":{
						"description":"Scene origin longitude",
						"default":0.0,
						"min":-180.0,
						"max":180.0
					},
					"latitude":{
						"description":"Scene origin latitude",
						"default":0.0,
						"min":-90.0,
						"max":90.0
					}
				},
				"SRID":"EPSG:3857",
				"crs x":120.08948470374341,
				"crs y":30.29677651691112,
				"longitude":0.0010787821957141017,
				"latitude":0.00027200000477023423
			},
			"name":"Scene",
			"nodes":[
				0,
				1,
				2
			]
		}
	],
	"nodes":[
		{
			"mesh":0,
			"name":"line-point-shp"
		},
		{
			"mesh":1,
			"name":"\u7334\u5934"
		},
		{
			"mesh":2,
			"name":"\u7acb\u65b9\u4f53"
		}
	],
	"meshes":[
		{
			"name":"line-point-shp.002",
			"primitives":[
				{
					"attributes":{
						"POSITION":0,
						"TEXCOORD_0":1,
						"NORMAL":2
					},
					"indices":3
				}
			]
		},
		{
			"name":"\u7334\u5934.001",
			"primitives":[
				{
					"attributes":{
						"POSITION":4,
						"TEXCOORD_0":5,
						"NORMAL":6
					},
					"indices":7
				}
			]
		},
		{
			"name":"\u7acb\u65b9\u4f53.004",
			"primitives":[
				{
					"attributes":{
						"POSITION":8,
						"TEXCOORD_0":9,
						"NORMAL":10
					},
					"indices":11
				}
			]
		}
	],
	"accessors":[
		{
			"bufferView":0,
			"componentType":5126,
			"count":126,
			"max":[
				2.3129098415374756,
				0.16156642138957977,
				0.5491795539855957
			],
			"min":[
				-2.6865601539611816,
				-0.16156642138957977,
				-0.41338109970092773
			],
			"type":"VEC3"
		},
		{
			"bufferView":1,
			"componentType":5126,
			"count":126,
			"type":"VEC2"
		},
		{
			"bufferView":2,
			"componentType":5126,
			"count":126,
			"type":"VEC3"
		},
		{
			"bufferView":3,
			"componentType":5123,
			"count":204,
			"type":"SCALAR"
		},
		{
			"bufferView":4,
			"componentType":5126,
			"count":1966,
			"max":[
				0.4998915493488312,
				1.4196854829788208,
				0.31136101484298706
			],
			"min":[
				-0.4998915493488312,
				0.6998416781425476,
				-0.31136101484298706
			],
			"type":"VEC3"
		},
		{
			"bufferView":5,
			"componentType":5126,
			"count":1966,
			"type":"VEC2"
		},
		{
			"bufferView":6,
			"componentType":5126,
			"count":1966,
			"type":"VEC3"
		},
		{
			"bufferView":7,
			"componentType":5123,
			"count":2904,
			"type":"SCALAR"
		},
		{
			"bufferView":8,
			"componentType":5126,
			"count":24,
			"max":[
				0.5,
				0.5786126852035522,
				0.5
			],
			"min":[
				-0.5,
				0.3786127269268036,
				-0.5
			],
			"type":"VEC3"
		},
		{
			"bufferView":9,
			"componentType":5126,
			"count":24,
			"type":"VEC2"
		},
		{
			"bufferView":10,
			"componentType":5126,
			"count":24,
			"type":"VEC3"
		},
		{
			"bufferView":11,
			"componentType":5123,
			"count":36,
			"type":"SCALAR"
		}
	],
	"bufferViews":[
		{
			"buffer":0,
			"byteLength":1512,
			"byteOffset":0,
			"target":34962
		},
		{
			"buffer":0,
			"byteLength":1008,
			"byteOffset":1512,
			"target":34962
		},
		{
			"buffer":0,
			"byteLength":1512,
			"byteOffset":2520,
			"target":34962
		},
		{
			"buffer":0,
			"byteLength":408,
			"byteOffset":4032,
			"target":34963
		},
		{
			"buffer":0,
			"byteLength":23592,
			"byteOffset":4440,
			"target":34962
		},
		{
			"buffer":0,
			"byteLength":15728,
			"byteOffset":28032,
			"target":34962
		},
		{
			"buffer":0,
			"byteLength":23592,
			"byteOffset":43760,
			"target":34962
		},
		{
			"buffer":0,
			"byteLength":5808,
			"byteOffset":67352,
			"target":34963
		},
		{
			"buffer":0,
			"byteLength":288,
			"byteOffset":73160,
			"target":34962
		},
		{
			"buffer":0,
			"byteLength":192,
			"byteOffset":73448,
			"target":34962
		},
		{
			"buffer":0,
			"byteLength":288,
			"byteOffset":73640,
			"target":34962
		},
		{
			"buffer":0,
			"byteLength":72,
			"byteOffset":73928,
			"target":34963
		}
	],
	"buffers":[
		{
			"byteLength":74000,
			"uri":"data:application/octet-stream;base64,"
		}
	]
}
