{
	"asset":{
		"generator":"Khronos glTF Blender I/O v3.5.30",
		"version":"2.0"
	},
	"scene":0,
	"scenes":[
		{
			"extras":{
				"_RNA_UI":{
					"SRID":{
						"description":"Map Coordinate Reference System",
						"default":""
					},
					"crs x":{
						"description":"Scene x origin in CRS space",
						"default":0.0
					},
					"crs y":{
						"description":"Scene y origin in CRS space",
						"default":0.0
					},
					"longitude":{
						"description":"Scene origin longitude",
						"default":0.0,
						"min":-180.0,
						"max":180.0
					},
					"latitude":{
						"description":"Scene origin latitude",
						"default":0.0,
						"min":-90.0,
						"max":90.0
					}
				},
				"SRID":"EPSG:3857",
				"crs x":120.08948470374341,
				"crs y":30.29677651691112,
				"longitude":0.0010787821957141017,
				"latitude":0.00027216057405024855
			},
			"name":"Scene",
			"nodes":[
				0
			]
		}
	],
	"nodes":[
		{
			"extras":{
				"id":"1.0",
				"dept":"\u6d59\u6c5f\u7701\u57ce\u4e61\u89c4\u5212\u8bbe\u8ba1\u7814\u7a76\u9662"
			},
			"mesh":0,
			"name":"line-point-shp",
			"scale":[
				322.4478454589844,
				323.8898620605469,
				323.8898620605469
			]
		}
	],
	"meshes":[
		{
			"name":"line-point-shp.001",
			"primitives":[
				{
					"attributes":{
						"POSITION":0,
						"TEXCOORD_0":1,
						"NORMAL":2
					},
					"indices":3
				}
			]
		}
	],
	"accessors":[
		{
			"bufferView":0,
			"componentType":5126,
			"count":126,
			"max":[
				0.0014594433596357703,
				0.00010000000474974513,
				0.00034470087848603725
			],
			"min":[
				-0.0016956483013927937,
				-0.00010000001202570274,
				-0.0002590778167359531
			],
			"type":"VEC3"
		},
		{
			"bufferView":1,
			"componentType":5126,
			"count":126,
			"type":"VEC2"
		},
		{
			"bufferView":2,
			"componentType":5126,
			"count":126,
			"type":"VEC3"
		},
		{
			"bufferView":3,
			"componentType":5123,
			"count":204,
			"type":"SCALAR"
		}
	],
	"bufferViews":[
		{
			"buffer":0,
			"byteLength":1512,
			"byteOffset":0,
			"target":34962
		},
		{
			"buffer":0,
			"byteLength":1008,
			"byteOffset":1512,
			"target":34962
		},
		{
			"buffer":0,
			"byteLength":1512,
			"byteOffset":2520,
			"target":34962
		},
		{
			"buffer":0,
			"byteLength":408,
			"byteOffset":4032,
			"target":34963
		}
	],
	"buffers":[
		{
			"byteLength":4440,
			"uri":"data:application/octet-stream;base64,"
		}
	]
}
